<svg width="16" height="17" viewBox="0 0 16 17" fill="none" xmlns="http://www.w3.org/2000/svg">
<path d="M9.33337 6.49992H8.58337C8.58337 6.91413 8.91916 7.24992 9.33337 7.24992V6.49992ZM9.33337 3.83325H10.0834H9.33337ZM7.33337 1.83325V1.08325C7.03698 1.08325 6.76839 1.2578 6.64802 1.52865L7.33337 1.83325ZM4.66671 7.83325L3.98135 7.52865C3.93873 7.62454 3.91671 7.72831 3.91671 7.83325H4.66671ZM4.66671 15.1666H3.91671C3.91671 15.5808 4.25249 15.9166 4.66671 15.9166V15.1666ZM12.1867 15.1666L12.1952 14.4166H12.1867V15.1666ZM13.52 14.0333L12.7787 13.9196L12.7785 13.9208L13.52 14.0333ZM14.44 8.03325L15.1814 8.14692L15.1815 8.1458L14.44 8.03325ZM13.1067 6.49992V7.24997L13.1152 7.24987L13.1067 6.49992ZM4.66671 15.1666V15.9166C5.08092 15.9166 5.41671 15.5808 5.41671 15.1666H4.66671ZM4.66671 7.83325H5.41671C5.41671 7.41904 5.08092 7.08325 4.66671 7.08325V7.83325ZM10.0834 6.49992V3.83325H8.58337V6.49992H10.0834ZM10.0834 3.83325C10.0834 2.31447 8.85216 1.08325 7.33337 1.08325V2.58325C8.02373 2.58325 8.58337 3.1429 8.58337 3.83325H10.0834ZM6.64802 1.52865L3.98135 7.52865L5.35207 8.13786L8.01873 2.13786L6.64802 1.52865ZM3.91671 7.83325V15.1666H5.41671V7.83325H3.91671ZM4.66671 15.9166H12.1867V14.4166H4.66671V15.9166ZM12.1782 15.9165C13.2171 15.9283 14.1058 15.1729 14.2616 14.1457L12.7785 13.9208C12.7349 14.2084 12.4861 14.4199 12.1952 14.4166L12.1782 15.9165ZM14.2614 14.1469L15.1814 8.14692L13.6987 7.91958L12.7787 13.9196L14.2614 14.1469ZM15.1815 8.1458C15.2733 7.54148 15.095 6.92737 14.6939 6.46613L13.562 7.4504C13.6743 7.57954 13.7242 7.7515 13.6985 7.9207L15.1815 8.1458ZM14.6939 6.46613C14.2928 6.00488 13.7094 5.74305 13.0982 5.74997L13.1152 7.24987C13.2863 7.24793 13.4497 7.32125 13.562 7.4504L14.6939 6.46613ZM13.1067 5.74992H9.33337V7.24992H13.1067V5.74992ZM4.66671 14.4166H2.66671V15.9166H4.66671V14.4166ZM2.66671 14.4166C2.34454 14.4166 2.08337 14.1554 2.08337 13.8333H0.583374C0.583374 14.9838 1.51611 15.9166 2.66671 15.9166V14.4166ZM2.08337 13.8333V9.16659H0.583374V13.8333H2.08337ZM2.08337 9.16659C2.08337 8.84442 2.34454 8.58325 2.66671 8.58325V7.08325C1.51611 7.08325 0.583374 8.01599 0.583374 9.16659H2.08337ZM2.66671 8.58325H4.66671V7.08325H2.66671V8.58325ZM3.91671 7.83325V15.1666H5.41671V7.83325H3.91671Z" fill="#ffffff"/>
</svg>
