<svg width="18" height="17" viewBox="0 0 18 17" fill="none" xmlns="http://www.w3.org/2000/svg">
<path d="M12.3333 14.5V13.1667C12.3333 11.6939 11.1394 10.5 9.66663 10.5H4.33329C2.86053 10.5 1.66663 11.6939 1.66663 13.1667V14.5" stroke="#ffffff" stroke-width="1.5" stroke-linecap="round" stroke-linejoin="round"/>
<path fill-rule="evenodd" clip-rule="evenodd" d="M7.00004 7.83333C8.4728 7.83333 9.66671 6.63943 9.66671 5.16667C9.66671 3.69391 8.4728 2.5 7.00004 2.5C5.52728 2.5 4.33337 3.69391 4.33337 5.16667C4.33337 6.63943 5.52728 7.83333 7.00004 7.83333Z" stroke="#ffffff" stroke-width="1.5" stroke-linecap="round" stroke-linejoin="round"/>
<path d="M16.3334 14.5V13.1667C16.3325 11.9514 15.51 10.8905 14.3334 10.5867" stroke="#ffffff" stroke-width="1.5" stroke-linecap="round" stroke-linejoin="round"/>
<path d="M11.6666 2.58667C12.8466 2.88878 13.6719 3.952 13.6719 5.17C13.6719 6.38801 12.8466 7.45122 11.6666 7.75334" stroke="#ffffff" stroke-width="1.5" stroke-linecap="round" stroke-linejoin="round"/>
</svg>
